<svg width="100" height="100" viewBox="0 0 100 100" fill="none" xmlns="http://www.w3.org/2000/svg">
<path d="M62.5 37.5H70.8333V45.8333H62.5V37.5ZM70.8333 20.8333H62.5V29.1666H70.8333V20.8333ZM45.8333 62.5H54.1667V54.1666H45.8333V62.5ZM54.1667 20.8333H45.8333V29.1666H54.1667V20.8333ZM45.8333 45.8333H54.1667V37.5H45.8333V45.8333ZM37.5 20.8333H29.1667V29.1666H37.5V20.8333ZM37.5 37.5H29.1667V45.8333H37.5V37.5ZM60.625 87.5H54.1667V72.9166H45.8333V87.5H20.8333V12.5H79.1667V45.9583C82.125 46.2083 84.9583 47.125 87.5 48.4583V4.16663H12.5V95.8333H66.2917C64.5833 93.5 62.5 90.6666 60.625 87.5ZM29.1667 79.1666H37.5V70.8333H29.1667V79.1666ZM37.5 54.1666H29.1667V62.5H37.5V54.1666ZM91.6667 68.75C91.6667 79.5833 77.0833 95.8333 77.0833 95.8333C77.0833 95.8333 62.5 79.5833 62.5 68.75C62.5 60.8333 69.1667 54.1666 77.0833 54.1666C85 54.1666 91.6667 60.8333 91.6667 68.75ZM82.0833 69.1666C82.0833 66.6666 79.5833 64.1666 77.0833 64.1666C74.5833 64.1666 72.0833 66.25 72.0833 69.1666C72.0833 71.6666 74.1667 74.1666 77.0833 74.1666C80 74.1666 82.5 71.6666 82.0833 69.1666Z" fill="#523317"/>
</svg>
