<svg width="100" height="100" viewBox="0 0 100 100" fill="none" xmlns="http://www.w3.org/2000/svg">
<path d="M66.9158 54.5417L90.3742 77.8334L76.5409 91.5L53.2492 68.2084V64.375L63.0825 54.5417H66.9158ZM70.7075 44L66.6659 40L46.7075 60V68.2084L23.2492 91.6667L9.58252 77.8334L32.8742 54.5417H41.0825L44.3325 51.2917L28.3325 35.25H22.9159L11.2075 23.4167L22.1242 12.5L33.7908 24.1667V29.625L49.9992 45.625L61.0825 34.5417L57.0825 30.3334L62.4992 24.875H51.4159L48.7075 22.1667L62.4992 8.33337L65.2492 11.0834V22.1667L70.7075 16.6667L84.3742 30.3334C88.9159 34.9167 88.9159 42.375 84.3742 46.9167L76.1659 38.5417L70.7075 44Z" fill="#523317"/>
</svg>
