<svg width="98" height="98" viewBox="0 0 98 98" fill="none" xmlns="http://www.w3.org/2000/svg">
<g filter="url(#filter0_d_30_139)">
<path d="M61.5 79.5H58.5V72V15C58.5 14.7 58.35 14.25 58.2 14.1L53.85 1.05C53.7 0.45 53.1 0 52.5 0C51.9 0 51.3 0.45 51.15 1.05L46.8 14.1C46.65 14.4 46.5 14.7 46.5 15V72V88.5C46.5 89.4 47.1 90 48 90H57C57.9 90 58.5 89.4 58.5 88.5V82.5H63C63.9 82.5 64.5 81.9 64.5 81V36H61.5V79.5ZM49.5 16.5H55.5V70.5H49.5V16.5ZM52.5 6.3L54.9 13.5H50.1L52.5 6.3ZM55.5 87H49.5V73.5H55.5V87Z" fill="#CDA274"/>
<path d="M88.5 0H72C71.1 0 70.5 0.6 70.5 1.5V88.5C70.5 89.4 71.1 90 72 90H88.5C89.4 90 90 89.4 90 88.5V1.5C90 0.6 89.4 0 88.5 0ZM87 87H73.5V76.5H81V73.5H73.5V61.5H81V58.5H73.5V46.5H81V43.5H73.5V31.5H81V28.5H73.5V16.5H81V13.5H73.5V3H87V87Z" fill="#CDA274"/>
<path d="M20.9995 14.9996C9.44951 14.9996 -0.000488281 24.4496 -0.000488281 35.9996C-0.000488281 44.0996 4.64951 51.4496 11.9995 54.8996V65.9996V73.4996C11.9995 74.3996 12.5995 74.9996 13.4995 74.9996H19.4995V79.4996H22.4995V74.9996H28.4995C29.3995 74.9996 29.9995 74.3996 29.9995 73.4996V65.9996V54.8996C37.3495 51.4496 41.9995 44.0996 41.9995 35.9996C41.9995 24.4496 32.5495 14.9996 20.9995 14.9996ZM26.9995 71.9996H14.9995V67.4996H26.9995V71.9996ZM27.8995 52.6496C27.2995 52.7996 26.9995 53.3996 26.9995 53.9996V64.4996H14.9995V61.4996H22.4995V58.4996H14.9995V53.9996C14.9995 53.3996 14.6995 52.7996 14.0995 52.6496C7.34951 49.7996 2.99951 43.1996 2.99951 35.9996C2.99951 26.0996 11.0995 17.9996 20.9995 17.9996C30.8995 17.9996 38.9995 26.0996 38.9995 35.9996C38.9995 43.1996 34.6495 49.7996 27.8995 52.6496Z" fill="#CDA274"/>
<path d="M24.4497 27.4505L20.9997 30.9005L17.5497 27.4505L15.4497 29.5505L19.4997 33.6005V49.5005H22.4997V33.6005L26.5497 29.5505L24.4497 27.4505Z" fill="#CDA274"/>
</g>
<defs>
<filter id="filter0_d_30_139" x="-0.000488281" y="0" width="98.0005" height="98" filterUnits="userSpaceOnUse" color-interpolation-filters="sRGB">
<feFlood flood-opacity="0" result="BackgroundImageFix"/>
<feColorMatrix in="SourceAlpha" type="matrix" values="0 0 0 0 0 0 0 0 0 0 0 0 0 0 0 0 0 0 127 0" result="hardAlpha"/>
<feOffset dx="4" dy="4"/>
<feGaussianBlur stdDeviation="2"/>
<feComposite in2="hardAlpha" operator="out"/>
<feColorMatrix type="matrix" values="0 0 0 0 0 0 0 0 0 0 0 0 0 0 0 0 0 0 0.5 0"/>
<feBlend mode="normal" in2="BackgroundImageFix" result="effect1_dropShadow_30_139"/>
<feBlend mode="normal" in="SourceGraphic" in2="effect1_dropShadow_30_139" result="shape"/>
</filter>
</defs>
</svg>
