<svg width="162" height="100" viewBox="0 0 162 100" fill="none" xmlns="http://www.w3.org/2000/svg">
<g clip-path="url(#clip0_25_141)">
<g filter="url(#filter0_d_25_141)">
<path d="M77.0004 10.2222C74.2893 10.2222 71.6893 11.2992 69.7722 13.2162C67.8552 15.1333 66.7782 17.7333 66.7782 20.4445C66.7782 23.1556 67.8552 25.7556 69.7722 27.6727C71.6893 29.5897 74.2893 30.6667 77.0004 30.6667C79.7115 30.6667 82.3116 29.5897 84.2286 27.6727C86.1457 25.7556 87.2227 23.1556 87.2227 20.4445C87.2227 17.7333 86.1457 15.1333 84.2286 13.2162C82.3116 11.2992 79.7115 10.2222 77.0004 10.2222ZM77.0004 15.0778C79.9649 15.0778 82.3671 17.48 82.3671 20.4445C82.3671 23.4089 79.9649 25.8111 77.0004 25.8111C75.5771 25.8111 74.2121 25.2457 73.2056 24.2393C72.1992 23.2328 71.6338 21.8678 71.6338 20.4445C71.6338 19.0211 72.1992 17.6561 73.2056 16.6496C74.2121 15.6432 75.5771 15.0778 77.0004 15.0778ZM77.0004 33.2222C70.1771 33.2222 56.556 36.6211 56.556 43.4445V51.1111H97.4449V43.4445C97.4449 36.6211 83.8238 33.2222 77.0004 33.2222ZM77.0004 38.0778C84.5904 38.0778 92.5893 41.8089 92.5893 43.4445V46.2556H61.4115V43.4445C61.4115 41.8089 69.3338 38.0778 77.0004 38.0778Z" fill="#CDA274"/>
</g>
</g>
<g filter="url(#filter1_d_25_141)">
<path d="M25.8891 77.6633L16.2802 83.4645L18.8102 72.5267L10.3257 65.1667L21.5191 64.2211L25.8891 53.8967L30.2591 64.2211L41.4524 65.1667L32.9679 72.5267L35.4979 83.4645L25.8891 77.6633ZM51.4446 61.9467L33.0702 60.3878L25.8891 43.4445L18.7079 60.3878L0.333496 61.9467L14.2613 74.0345L10.0957 92L25.8891 82.4678L41.6824 92L37.4913 74.0345L51.4446 61.9467Z" fill="#CDA274"/>
</g>
<g filter="url(#filter2_d_25_141)">
<path d="M77.0004 77.6633L67.3915 83.4645L69.9215 72.5267L61.437 65.1667L72.6304 64.2211L77.0004 53.8967L81.3704 64.2211L92.5637 65.1667L84.0793 72.5267L86.6093 83.4645L77.0004 77.6633ZM102.556 61.9467L84.1815 60.3878L77.0004 43.4445L69.8193 60.3878L51.4448 61.9467L65.3726 74.0345L61.207 92L77.0004 82.4678L92.7937 92L88.6026 74.0345L102.556 61.9467Z" fill="#CDA274"/>
</g>
<g filter="url(#filter3_d_25_141)">
<path d="M128.111 77.6633L118.502 83.4645L121.032 72.5267L112.548 65.1667L123.741 64.2211L128.111 53.8967L132.481 64.2211L143.675 65.1667L135.19 72.5267L137.72 83.4645L128.111 77.6633ZM153.667 61.9467L135.292 60.3878L128.111 43.4445L120.93 60.3878L102.556 61.9467L116.483 74.0345L112.318 92L128.111 82.4678L143.905 92L139.713 74.0345L153.667 61.9467Z" fill="#CDA274"/>
</g>
<defs>
<filter id="filter0_d_25_141" x="56.5562" y="10.2222" width="48.8887" height="48.8889" filterUnits="userSpaceOnUse" color-interpolation-filters="sRGB">
<feFlood flood-opacity="0" result="BackgroundImageFix"/>
<feColorMatrix in="SourceAlpha" type="matrix" values="0 0 0 0 0 0 0 0 0 0 0 0 0 0 0 0 0 0 127 0" result="hardAlpha"/>
<feOffset dx="4" dy="4"/>
<feGaussianBlur stdDeviation="2"/>
<feComposite in2="hardAlpha" operator="out"/>
<feColorMatrix type="matrix" values="0 0 0 0 0 0 0 0 0 0 0 0 0 0 0 0 0 0 0.5 0"/>
<feBlend mode="normal" in2="BackgroundImageFix" result="effect1_dropShadow_25_141"/>
<feBlend mode="normal" in="SourceGraphic" in2="effect1_dropShadow_25_141" result="shape"/>
</filter>
<filter id="filter1_d_25_141" x="0.333496" y="43.4445" width="59.1113" height="56.5555" filterUnits="userSpaceOnUse" color-interpolation-filters="sRGB">
<feFlood flood-opacity="0" result="BackgroundImageFix"/>
<feColorMatrix in="SourceAlpha" type="matrix" values="0 0 0 0 0 0 0 0 0 0 0 0 0 0 0 0 0 0 127 0" result="hardAlpha"/>
<feOffset dx="4" dy="4"/>
<feGaussianBlur stdDeviation="2"/>
<feComposite in2="hardAlpha" operator="out"/>
<feColorMatrix type="matrix" values="0 0 0 0 0 0 0 0 0 0 0 0 0 0 0 0 0 0 0.5 0"/>
<feBlend mode="normal" in2="BackgroundImageFix" result="effect1_dropShadow_25_141"/>
<feBlend mode="normal" in="SourceGraphic" in2="effect1_dropShadow_25_141" result="shape"/>
</filter>
<filter id="filter2_d_25_141" x="51.4448" y="43.4445" width="59.1113" height="56.5555" filterUnits="userSpaceOnUse" color-interpolation-filters="sRGB">
<feFlood flood-opacity="0" result="BackgroundImageFix"/>
<feColorMatrix in="SourceAlpha" type="matrix" values="0 0 0 0 0 0 0 0 0 0 0 0 0 0 0 0 0 0 127 0" result="hardAlpha"/>
<feOffset dx="4" dy="4"/>
<feGaussianBlur stdDeviation="2"/>
<feComposite in2="hardAlpha" operator="out"/>
<feColorMatrix type="matrix" values="0 0 0 0 0 0 0 0 0 0 0 0 0 0 0 0 0 0 0.5 0"/>
<feBlend mode="normal" in2="BackgroundImageFix" result="effect1_dropShadow_25_141"/>
<feBlend mode="normal" in="SourceGraphic" in2="effect1_dropShadow_25_141" result="shape"/>
</filter>
<filter id="filter3_d_25_141" x="102.556" y="43.4445" width="59.1113" height="56.5555" filterUnits="userSpaceOnUse" color-interpolation-filters="sRGB">
<feFlood flood-opacity="0" result="BackgroundImageFix"/>
<feColorMatrix in="SourceAlpha" type="matrix" values="0 0 0 0 0 0 0 0 0 0 0 0 0 0 0 0 0 0 127 0" result="hardAlpha"/>
<feOffset dx="4" dy="4"/>
<feGaussianBlur stdDeviation="2"/>
<feComposite in2="hardAlpha" operator="out"/>
<feColorMatrix type="matrix" values="0 0 0 0 0 0 0 0 0 0 0 0 0 0 0 0 0 0 0.5 0"/>
<feBlend mode="normal" in2="BackgroundImageFix" result="effect1_dropShadow_25_141"/>
<feBlend mode="normal" in="SourceGraphic" in2="effect1_dropShadow_25_141" result="shape"/>
</filter>
<clipPath id="clip0_25_141">
<rect width="61.3333" height="61.3333" fill="white" transform="translate(38.667)"/>
</clipPath>
</defs>
</svg>
