<svg width="44" height="44" viewBox="0 0 44 44" fill="none" xmlns="http://www.w3.org/2000/svg">
<path d="M43.5444 12.8308C43.4396 10.5059 43.064 8.91513 42.5311 7.52542C41.9721 6.09201 41.2296 4.86836 40.0154 3.6622C38.8012 2.45603 37.5871 1.69562 36.1545 1.14498C34.7656 0.603082 33.1758 0.235989 30.8523 0.131105C28.52 0.026221 27.7776 0 21.8552 0C15.9241 0 15.1816 0.026221 12.858 0.131105C10.5345 0.235989 8.94473 0.611823 7.55585 1.14498C6.11457 1.70436 4.89165 2.44729 3.68621 3.6622C2.48077 4.8771 1.72082 6.09201 1.17051 7.52542C0.63767 8.91513 0.262062 10.5059 0.157241 12.8308C0.0524198 15.1645 0.0262146 15.9074 0.0262146 21.8333C0.0262146 27.768 0.0524198 28.5109 0.157241 30.8359C0.262062 33.1608 0.63767 34.7515 1.17051 36.1412C1.72956 37.5747 2.47204 38.7983 3.68621 40.0045C4.89165 41.2194 6.11457 41.971 7.54712 42.5217C8.936 43.0636 10.5258 43.4307 12.8493 43.5356C15.1816 43.6404 15.9241 43.6667 21.8464 43.6667C27.7776 43.6667 28.52 43.6404 30.8436 43.5356C33.1671 43.4307 34.7569 43.0548 36.1458 42.5217C37.5783 41.9623 38.8012 41.2194 40.0067 40.0045C41.2121 38.7896 41.9721 37.5747 42.5224 36.1412C43.064 34.7515 43.4308 33.1608 43.5356 30.8359C43.6405 28.5022 43.6667 27.7593 43.6667 21.8333C43.6667 15.9074 43.6492 15.1557 43.5444 12.8308ZM39.6223 30.6611C39.5262 32.7937 39.1681 33.9562 38.8711 34.7166C38.478 35.7304 37.9976 36.4646 37.2289 37.2338C36.4602 38.0029 35.7352 38.4662 34.7132 38.877C33.9445 39.1741 32.7828 39.5325 30.6601 39.6286C28.3628 39.7335 27.6727 39.7597 21.8377 39.7597C16.0027 39.7597 15.3126 39.7335 13.0153 39.6286C10.8839 39.5325 9.72215 39.1741 8.9622 38.877C7.94893 38.4837 7.21519 38.0029 6.4465 37.2338C5.67781 36.4646 5.21485 35.7392 4.8043 34.7166C4.50731 33.9474 4.14917 32.785 4.05309 30.6611C3.94827 28.3624 3.92206 27.6719 3.92206 21.8333C3.92206 15.9948 3.94827 15.3043 4.05309 13.0056C4.14917 10.873 4.50731 9.7105 4.8043 8.95009C5.19738 7.93622 5.67781 7.20203 6.4465 6.43288C7.21519 5.66373 7.9402 5.20049 8.9622 4.7897C9.73089 4.49253 10.8927 4.13417 13.0153 4.03803C15.3126 3.93315 16.0027 3.90693 21.8377 3.90693C27.6727 3.90693 28.3628 3.93315 30.6601 4.03803C32.7915 4.13417 33.9533 4.49253 34.7132 4.7897C35.7265 5.18301 36.4602 5.66373 37.2289 6.43288C37.9976 7.20203 38.4606 7.92748 38.8711 8.95009C39.1681 9.71924 39.5262 10.8817 39.6223 13.0056C39.7272 15.3043 39.7534 15.9948 39.7534 21.8333C39.7534 27.6719 39.7184 28.3624 39.6223 30.6611Z" fill="url(#paint0_linear_6_925)"/>
<path d="M21.8378 10.6106C15.6359 10.6106 10.6219 15.6363 10.6219 21.8332C10.6219 28.0388 15.6446 33.0558 21.8378 33.0558C28.0309 33.0558 33.0536 28.0213 33.0536 21.8332C33.0536 15.6275 28.0397 10.6106 21.8378 10.6106ZM21.8378 29.1139C17.8196 29.1139 14.5615 25.8537 14.5615 21.8332C14.5615 17.8126 17.8196 14.5525 21.8378 14.5525C25.8559 14.5525 29.1141 17.8126 29.1141 21.8332C29.1141 25.8537 25.8559 29.1139 21.8378 29.1139Z" fill="url(#paint1_linear_6_925)"/>
<path d="M33.4903 12.796C34.9376 12.796 36.1109 11.622 36.1109 10.1739C36.1109 8.72571 34.9376 7.55176 33.4903 7.55176C32.0431 7.55176 30.8698 8.72571 30.8698 10.1739C30.8698 11.622 32.0431 12.796 33.4903 12.796Z" fill="#BC30A0"/>
<path d="M0 21.8333C0 27.768 0.0262052 28.5109 0.131026 30.8359C0.235847 33.1608 0.611456 34.7515 1.1443 36.1412C1.70334 37.5747 2.44582 38.7983 3.66 40.0045C4.86544 41.2106 6.08835 41.971 7.5209 42.5217C8.90978 43.0636 10.4996 43.4307 12.8231 43.5356C15.1554 43.6404 15.8978 43.6667 21.8202 43.6667C27.7513 43.6667 28.4938 43.6404 30.8174 43.5356C33.1409 43.4307 34.7307 43.0548 36.1196 42.5217C37.5521 41.9623 38.775 41.2194 39.9805 40.0045C41.1859 38.7983 41.9459 37.5747 42.4962 36.1412C43.0377 34.7515 43.4046 33.1608 43.5094 30.8359C43.6143 28.5022 43.6405 27.7593 43.6405 21.8333C43.6405 15.8987 43.6143 15.1557 43.5094 12.8308C43.4046 10.5059 43.029 8.91513 42.4962 7.52542C41.9371 6.09201 41.1946 4.86836 39.9805 3.6622C38.7838 2.44729 37.5608 1.69562 36.1283 1.14498C34.7394 0.603082 33.1496 0.235989 30.8261 0.131105C28.4938 0.026221 27.7513 0 21.829 0C15.8978 0 15.1554 0.026221 12.8318 0.131105C10.5083 0.235989 8.91852 0.611823 7.52964 1.14498C6.09709 1.70436 4.87417 2.44729 3.66873 3.6622C2.46329 4.8771 1.70334 6.09201 1.15303 7.52542C0.611456 8.91513 0.235847 10.5059 0.131026 12.8308C0.0262052 15.1557 0 15.8987 0 21.8333ZM3.93952 21.8333C3.93952 16.0035 3.96573 15.3043 4.07055 13.0056C4.16663 10.873 4.52477 9.7105 4.82176 8.95009C5.21484 7.93622 5.69527 7.20203 6.46396 6.43288C7.23265 5.66373 7.95766 5.20049 8.97966 4.7897C9.74835 4.49253 10.9101 4.13417 13.0327 4.03803C15.3301 3.93315 16.0201 3.90693 21.8552 3.90693C27.6902 3.90693 28.3803 3.93315 30.6776 4.03803C32.809 4.13417 33.9707 4.49253 34.7307 4.7897C35.7439 5.18301 36.4777 5.66373 37.2464 6.43288C38.0151 7.20203 38.478 7.92748 38.8886 8.95009C39.1856 9.71924 39.5437 10.8817 39.6398 13.0056C39.7446 15.3043 39.7708 15.9948 39.7708 21.8333C39.7708 27.6719 39.7446 28.3624 39.6398 30.6611C39.5437 32.7937 39.1856 33.9562 38.8886 34.7166C38.4955 35.7304 38.0151 36.4646 37.2464 37.2338C36.4777 38.0029 35.7527 38.4662 34.7307 38.877C33.962 39.1741 32.8002 39.5325 30.6776 39.6286C28.3803 39.7335 27.6902 39.7597 21.8552 39.7597C16.0201 39.7597 15.3301 39.7335 13.0327 39.6286C10.9014 39.5325 9.73961 39.1741 8.97966 38.877C7.96639 38.4837 7.23265 38.0029 6.46396 37.2338C5.69527 36.4646 5.23231 35.7392 4.82176 34.7166C4.52477 33.9474 4.16663 32.785 4.07055 30.6611C3.95699 28.3624 3.93952 27.6631 3.93952 21.8333Z" fill="url(#paint2_linear_6_925)"/>
<defs>
<linearGradient id="paint0_linear_6_925" x1="36.9265" y1="3.33905" x2="5.33651" y2="42.043" gradientUnits="userSpaceOnUse">
<stop stop-color="#AE3DAE"/>
<stop offset="0.0468721" stop-color="#B23BA6"/>
<stop offset="0.1216" stop-color="#BD368E"/>
<stop offset="0.2148" stop-color="#CE2E69"/>
<stop offset="0.3216" stop-color="#E62335"/>
<stop offset="0.418" stop-color="#FF1800"/>
</linearGradient>
<linearGradient id="paint1_linear_6_925" x1="27.1867" y1="12.8321" x2="15.7108" y2="32.1156" gradientUnits="userSpaceOnUse">
<stop stop-color="#E12F6A"/>
<stop offset="0.1705" stop-color="#EA3751"/>
<stop offset="0.3563" stop-color="#F13D3E"/>
<stop offset="0.5467" stop-color="#F64133"/>
<stop offset="0.7469" stop-color="#F7422F"/>
<stop offset="0.7946" stop-color="#F74C2F"/>
<stop offset="0.8743" stop-color="#F7652F"/>
<stop offset="0.9757" stop-color="#F78F2E"/>
<stop offset="1" stop-color="#F79A2E"/>
</linearGradient>
<linearGradient id="paint2_linear_6_925" x1="31.7276" y1="-1.79767" x2="12.3975" y2="44.2786" gradientUnits="userSpaceOnUse">
<stop offset="0.2341" stop-color="#9E35A5" stop-opacity="0"/>
<stop offset="0.4512" stop-color="#D42F7F" stop-opacity="0.5"/>
<stop offset="0.7524" stop-color="#F7772E"/>
<stop offset="0.9624" stop-color="#FEF780"/>
</linearGradient>
</defs>
</svg>
