<svg width="44" height="44" viewBox="0 0 44 44" fill="none" xmlns="http://www.w3.org/2000/svg">
<g clip-path="url(#clip0_6_928)">
<path d="M0 5.8252C0 4.42019 0.491756 3.26109 1.47523 2.34788C2.45869 1.43463 3.73725 0.978027 5.31081 0.978027C6.8563 0.978027 8.1067 1.42759 9.0621 2.3268C10.0456 3.25409 10.5373 4.46234 10.5373 5.95164C10.5373 7.30042 10.0596 8.42437 9.10425 9.32359C8.12078 10.2509 6.82819 10.7145 5.22651 10.7145H5.18436C3.63887 10.7145 2.38847 10.2509 1.43308 9.32359C0.477678 8.3963 0 7.23016 0 5.8252ZM0.547941 42.7058V14.5501H9.90508V42.7058H0.547941ZM15.0894 42.7058H24.4466V26.9841C24.4466 26.0006 24.559 25.2419 24.7838 24.7081C25.1772 23.7527 25.7743 22.9448 26.5751 22.2845C27.376 21.6241 28.3805 21.294 29.5888 21.294C32.736 21.294 34.3095 23.4155 34.3095 27.6585V42.7058H43.6667V26.5626C43.6667 22.4039 42.6832 19.2497 40.7162 17.1001C38.7492 14.9505 36.1501 13.8757 32.9186 13.8757C29.2938 13.8757 26.4698 15.4352 24.4466 18.5543V18.6386H24.4044L24.4466 18.5543V14.5501H15.0894C15.1456 15.4493 15.1737 18.2452 15.1737 22.9378C15.1737 27.6304 15.1456 34.2197 15.0894 42.7058Z" fill="#0A66C2"/>
</g>
<defs>
<clipPath id="clip0_6_928">
<rect width="43.6667" height="43.6667" fill="white"/>
</clipPath>
</defs>
</svg>
