<svg width="100" height="100" viewBox="0 0 100 100" fill="none" xmlns="http://www.w3.org/2000/svg">
<path d="M32.6563 13.417C34.3087 14.9026 34.4423 17.423 32.9567 19.0755L20.9387 32.4289C20.2042 33.2468 19.1693 33.7309 18.0677 33.7476C16.966 33.7643 15.9144 33.347 15.1299 32.5792L8.43653 25.9025C6.8842 24.3334 6.8842 21.7963 8.43653 20.2273C9.98887 18.6582 12.5427 18.6582 14.095 20.2273L17.7839 23.9161L26.9811 13.7008C28.4666 12.0483 30.9871 11.9148 32.6396 13.4003L32.6563 13.417ZM32.6563 40.1238C34.3087 41.6094 34.4423 44.1299 32.9567 45.7823L20.9387 59.1358C20.2042 59.9537 19.1693 60.4377 18.0677 60.4544C16.966 60.4711 15.9144 60.0538 15.1299 59.286L8.43653 52.6093C6.86751 51.0402 6.86751 48.5031 8.43653 46.9508C10.0056 45.3984 12.5427 45.3817 14.095 46.9508L17.7839 50.6396L26.9811 40.4243C28.4666 38.7718 30.9871 38.6383 32.6396 40.1238H32.6563ZM44.6576 23.0649C44.6576 20.1104 47.0445 17.7235 49.999 17.7235H87.3885C90.3429 17.7235 92.7299 20.1104 92.7299 23.0649C92.7299 26.0193 90.3429 28.4062 87.3885 28.4062H49.999C47.0445 28.4062 44.6576 26.0193 44.6576 23.0649ZM44.6576 49.7717C44.6576 46.8172 47.0445 44.4303 49.999 44.4303H87.3885C90.3429 44.4303 92.7299 46.8172 92.7299 49.7717C92.7299 52.7261 90.3429 55.113 87.3885 55.113H49.999C47.0445 55.113 44.6576 52.7261 44.6576 49.7717ZM33.9749 76.4785C33.9749 73.5241 36.3618 71.1371 39.3163 71.1371H87.3885C90.3429 71.1371 92.7299 73.5241 92.7299 76.4785C92.7299 79.4329 90.3429 81.8199 87.3885 81.8199H39.3163C36.3618 81.8199 33.9749 79.4329 33.9749 76.4785ZM15.2801 68.4664C17.4051 68.4664 19.443 69.3106 20.9455 70.8131C22.4481 72.3157 23.2922 74.3536 23.2922 76.4785C23.2922 78.6034 22.4481 80.6413 20.9455 82.1439C19.443 83.6464 17.4051 84.4905 15.2801 84.4905C13.1552 84.4905 11.1173 83.6464 9.61478 82.1439C8.11223 80.6413 7.26811 78.6034 7.26811 76.4785C7.26811 74.3536 8.11223 72.3157 9.61478 70.8131C11.1173 69.3106 13.1552 68.4664 15.2801 68.4664Z" fill="#523317"/>
</svg>
