<svg width="100" height="100" viewBox="0 0 100 100" fill="none" xmlns="http://www.w3.org/2000/svg">
<path d="M40.6243 86.875C48.041 83.9584 46.416 75.9167 42.666 70.8334C38.9576 65.625 33.8326 62.0417 28.666 58.5834C24.9993 56.25 21.6243 53.3334 18.916 50C17.7493 48.625 15.3743 46.0834 17.791 45.5834C20.2493 45.0834 24.4993 47.5 26.666 48.4167C30.4576 50 34.2076 51.8334 37.7076 54L41.916 46.9167C35.416 42.625 27.0826 38.8334 19.3326 37.7084C14.916 37.0417 10.2493 37.9584 8.7493 42.75C7.41597 46.875 9.54097 51.0417 11.9576 54.2917C17.666 61.9167 26.541 65.5834 33.166 72.1667C34.5826 73.5417 36.291 75.1667 37.1243 77.0834C37.9993 78.9167 37.791 79.0417 35.8326 79.0417C30.666 79.0417 24.2076 75 19.9993 72.3334L15.791 79.4167C22.166 83.3334 32.8326 89.4584 40.6243 86.875ZM78.9993 30.5417L55.3743 54.1667H45.8326V44.625L69.4576 20.9584L78.9993 30.5417ZM93.166 27.2917C93.1243 28.5417 91.8326 29.8334 90.4993 31.125L79.9993 41.6667L76.3743 38.0417L87.2076 27.25L84.7493 24.7917L81.9576 27.5834L72.416 18.0417L81.3743 9.08337C82.3743 8.08337 83.9993 8.08337 84.9576 9.08337L90.916 15.0417C91.916 15.9584 91.916 17.625 90.916 18.625C90.041 19.5 89.2076 20.3334 89.2076 21.1667C89.1243 22 89.9576 22.9167 90.791 23.625C91.9993 24.875 93.2076 26.0417 93.166 27.2917Z" fill="#523317"/>
</svg>
