<svg width="44" height="44" viewBox="0 0 44 44" fill="none" xmlns="http://www.w3.org/2000/svg">
<rect width="43.6667" height="43.6667" rx="21.8333" fill="#FF0000"/>
<path d="M34.548 15.583C34.2484 14.4699 33.3707 13.5923 32.2577 13.2926C30.2242 12.7361 22.0902 12.7361 22.0902 12.7361C22.0902 12.7361 13.9562 12.7361 11.9227 13.2712C10.831 13.5709 9.93203 14.4699 9.63235 15.583C9.09722 17.6165 9.09722 21.8333 9.09722 21.8333C9.09722 21.8333 9.09722 26.0715 9.63235 28.0836C9.93203 29.1967 10.8096 30.0743 11.9227 30.374C13.9776 30.9305 22.0902 30.9305 22.0902 30.9305C22.0902 30.9305 30.2242 30.9305 32.2577 30.3954C33.3707 30.0957 34.2484 29.2181 34.548 28.105C35.0832 26.0715 35.0832 21.8547 35.0832 21.8547C35.0832 21.8547 35.1046 17.6165 34.548 15.583Z" fill="white"/>
<path d="M19.5 25.7292L26.264 21.8335L19.5 17.9377V25.7292Z" fill="#FF0000"/>
</svg>
